# xmcd CD database file
#
# Track frame offsets:
#	150
#	12475
#	24752
#	37560
#	51035
#	63192
#	75740
#	88997
#	102157
#	114672
#	127370
#	139640
#	152932
#	165272
#	177610
#	191447
#	202680
#	212590
#	224052
#	233845
#	246447
#	257290
#	270615
#	280962
#	292575
#	304892
#	317135
#
# Disc length: 4404 seconds
#
# Revision: 4
# Processed by: cddbd v1.5.1PL2 Copyright (c) Steve Scherf et al.
# Submitted via: CDex 1.51
#
DISCID=7a11321b
DTITLE=Various Artist - Honky Tonk Heroes Vol 2
DYEAR=1990
DGENRE=Country
TTITLE0=Bob Wills and His Texas Playboys - Brain Cloudy Blues
TTITLE1=Floyd Tillman - Slipping Around
TTITLE2=Floyd Tillman - This Cold War With You
TTITLE3=Stuart Hamblen - (Remember Me) I'm The One Who Loves You
TTITLE4=Floyd Tillman - I love You So Much It Hurts
TTITLE5=George Morgan - Room Full Of Roses
TTITLE6=Carl Smith - I Overlooked An Orchid
TTITLE7="Little" Jimmy Dickens - Country Boy
TTITLE8="Little" Jimmy Dickens - Take An Old Cold 'Tater (and Wait)
TTITLE9=Carl Smith - Let Old Mother Nature Have Her Way
TTITLE10="Little" Jimmy Dickens - A Sleepin' At The Foot Of The Bed
TTITLE11=Lefty Frizzell - If You've Got The Money, I've Got The Time
TTITLE12=Lefty Frizzell - I Love You A Thousand Ways
TTITLE13=Marty Robbins - I Couldn't Keep From Crying
TTITLE14=Lefty Frizzell - Always Late (With Your Kisses)
TTITLE15=Carl Smith - Hey Joe!
TTITLE16=Johnny Horton - Honky Tonk Man
TTITLE17=Ray Price - Crazy Arms
TTITLE18=Marty Robbins - Knee Deep In The Blues
TTITLE19=Ray Price - Invitation To The Blues
TTITLE20=Charlie Walker - Pick Me Up On Your Way Down
TTITLE21=Ray Price - Heartaches By The Number
TTITLE22=Stonewall Jackson - Why I'm Walkin'
TTITLE23=Charlie Walker - Who Will Buy The Wine
TTITLE24=Carl Butler - Honky Tonkitis
TTITLE25=Ray Price - Heart Over Mind
TTITLE26=Carl Butler - Don't Let Me Cross Over
EXTD=YEAR: 1990
EXTT0=Bob Wills and His Texas Playboys
EXTT1=Floyd Tillman
EXTT2=Floyd Tilman
EXTT3=Stuart Hamblen
EXTT4=Floyd Tilman
EXTT5=George Morgan
EXTT6=Carl Smith
EXTT7="Little" Jimmy Dickens
EXTT8="Little" Jimmy Dickens
EXTT9=Carl Smith
EXTT10="Little" Jimmy Dickens
EXTT11=Lefty Frizzell
EXTT12=Lefty Frizzell
EXTT13=Marty Robbins
EXTT14=Lefty Frizzell
EXTT15=Carl Smith
EXTT16=Jonny Horton
EXTT17=Ray Price
EXTT18=Marty Robbins
EXTT19=Ray Price
EXTT20=Charlie Walker
EXTT21=Ray Price
EXTT22=Stonewall Jackson
EXTT23=Charlie Walker
EXTT24=Carl Butler
EXTT25=Ray Price
EXTT26=Carl Butler
PLAYORDER=
